<svg xmlns="http://www.w3.org/2000/svg" width="1400" height="900" viewBox="0 0 1400 900">
  <defs>
    <linearGradient id="bg" x1="0" y1="0" x2="1" y2="1"><stop stop-color="#0f172a"/><stop offset="1" stop-color="#164e63"/></linearGradient>
    <linearGradient id="accent"><stop stop-color="#2563eb"/><stop offset="1" stop-color="#06b6d4"/></linearGradient>
    <filter id="shadow"><feDropShadow dy="18" stdDeviation="22" flood-color="#020617" flood-opacity=".45"/></filter>
  </defs>
  <rect width="1400" height="900" fill="url(#bg)"/>
  <circle cx="1240" cy="100" r="250" fill="#38bdf8" opacity=".07"/><circle cx="100" cy="820" r="260" fill="#3b82f6" opacity=".07"/>
  <g filter="url(#shadow)"><rect x="70" y="45" width="1260" height="810" rx="22" fill="#f8fafc"/><path d="M92 45h1216a22 22 0 0 1 22 22v51H70V67a22 22 0 0 1 22-22z" fill="#e2e8f0"/></g>
  <circle cx="108" cy="82" r="10" fill="#fb7185"/><circle cx="140" cy="82" r="10" fill="#fbbf24"/><circle cx="172" cy="82" r="10" fill="#34d399"/>
  <text x="700" y="90" text-anchor="middle" font-family="Arial" font-size="20" font-weight="700" fill="#334155">Mediatovideo Converter 0.3.0</text>
  <text x="115" y="168" font-family="Arial" font-size="34" font-weight="700" fill="#0f172a">Mediatovideo Converter</text>
  <text x="115" y="201" font-family="Arial" font-size="18" fill="#64748b">Combine camera .media clips into usable MKV or MP4 videos.</text>
  <rect x="1092" y="151" width="188" height="42" rx="21" fill="#dbeafe"/><text x="1186" y="178" text-anchor="middle" font-family="Arial" font-size="15" font-weight="700" fill="#1d4ed8">Windows + macOS</text>

  <rect x="110" y="232" width="1180" height="202" rx="14" fill="#fff" stroke="#cbd5e1"/><text x="138" y="267" font-family="Arial" font-size="17" font-weight="700" fill="#334155">Folders and FFmpeg</text>
  <g font-family="Arial" font-size="15"><text x="138" y="314" fill="#475569">Source</text><text x="138" y="365" fill="#475569">Output</text><text x="138" y="416" fill="#475569">FFmpeg bin</text></g>
  <g fill="#f8fafc" stroke="#cbd5e1"><rect x="260" y="287" width="820" height="42" rx="8"/><rect x="260" y="338" width="820" height="42" rx="8"/><rect x="260" y="389" width="820" height="42" rx="8"/></g>
  <g font-family="Arial" font-size="15" fill="#94a3b8"><text x="280" y="314">Choose a folder containing .media clips</text><text x="280" y="365">Choose where converted videos will be saved</text><text x="280" y="416">Automatic detection (optional override)</text></g>
  <g fill="#e2e8f0"><rect x="1100" y="287" width="155" height="42" rx="8"/><rect x="1100" y="338" width="155" height="42" rx="8"/><rect x="1100" y="389" width="155" height="42" rx="8"/></g>
  <g font-family="Arial" font-size="15" font-weight="700" fill="#334155" text-anchor="middle"><text x="1178" y="314">Browse…</text><text x="1178" y="365">Browse…</text><text x="1178" y="416">Browse…</text></g>

  <rect x="110" y="458" width="1180" height="206" rx="14" fill="#fff" stroke="#cbd5e1"/><text x="138" y="493" font-family="Arial" font-size="17" font-weight="700" fill="#334155">Conversion options</text>
  <g font-family="Arial" font-size="15" fill="#475569"><text x="138" y="541">Grouping</text><text x="730" y="541">Output layout</text><text x="138" y="608">Video format</text><text x="730" y="608">File naming</text></g>
  <g fill="#f8fafc" stroke="#cbd5e1"><rect x="260" y="514" width="430" height="44" rx="8"/><rect x="865" y="514" width="390" height="44" rx="8"/><rect x="260" y="581" width="430" height="44" rx="8"/><rect x="865" y="581" width="390" height="44" rx="8"/></g>
  <g font-family="Arial" font-size="15" fill="#0f172a"><text x="280" y="542">One video per day</text><text x="885" y="542">Replicate YYYY/MM/DD folders</text><text x="280" y="609">MKV — fast, lossless stream copy</text><text x="885" y="609">Month-Day-Category</text></g>
  <g fill="none" stroke="#64748b" stroke-width="2"><path d="M660 532l8 8 8-8"/><path d="M1225 532l8 8 8-8"/><path d="M660 599l8 8 8-8"/><path d="M1225 599l8 8 8-8"/></g>

  <rect x="110" y="697" width="190" height="52" rx="10" fill="#2563eb"/><text x="205" y="730" text-anchor="middle" font-family="Arial" font-size="16" font-weight="700" fill="#fff">1. Scan source</text>
  <rect x="316" y="697" width="210" height="52" rx="10" fill="#cbd5e1"/><text x="421" y="730" text-anchor="middle" font-family="Arial" font-size="16" font-weight="700" fill="#64748b">2. Convert videos</text>
  <rect x="542" y="697" width="190" height="52" rx="10" fill="#e0f2fe" stroke="#7dd3fc"/><text x="637" y="730" text-anchor="middle" font-family="Arial" font-size="16" font-weight="700" fill="#0369a1">MKV → MP4 tool</text>
  <rect x="110" y="776" width="1180" height="52" rx="10" fill="#eff6ff" stroke="#bfdbfe"/><circle cx="142" cy="802" r="9" fill="#3b82f6"/><text x="166" y="808" font-family="Arial" font-size="16" fill="#1e3a8a">Choose a source folder, then scan it.</text>
</svg>
