<svg xmlns="http://www.w3.org/2000/svg" width="1400" height="900" viewBox="0 0 1400 900">
  <defs>
    <linearGradient id="mkvbg" x1="0" y1="0" x2="1" y2="1"><stop stop-color="#0f172a"/><stop offset="1" stop-color="#164e63"/></linearGradient>
    <filter id="mkvshadow"><feDropShadow dy="18" stdDeviation="22" flood-color="#020617" flood-opacity=".45"/></filter>
  </defs>
  <rect width="1400" height="900" fill="url(#mkvbg)"/><circle cx="1250" cy="120" r="260" fill="#38bdf8" opacity=".08"/><circle cx="120" cy="800" r="250" fill="#2563eb" opacity=".08"/>
  <g filter="url(#mkvshadow)"><rect x="150" y="100" width="1100" height="700" rx="22" fill="#f8fafc"/><path d="M172 100h1056a22 22 0 0 1 22 22v51H150v-51a22 22 0 0 1 22-22z" fill="#e2e8f0"/></g>
  <circle cx="188" cy="137" r="10" fill="#fb7185"/><circle cx="220" cy="137" r="10" fill="#fbbf24"/><circle cx="252" cy="137" r="10" fill="#34d399"/><text x="700" y="145" text-anchor="middle" font-family="Arial" font-size="20" font-weight="700" fill="#334155">MKV to MP4 — Mediatovideo Converter</text>
  <text x="205" y="232" font-family="Arial" font-size="32" font-weight="700" fill="#0f172a">Convert one MKV file to MP4</text><text x="205" y="267" font-family="Arial" font-size="18" fill="#64748b">H.264 video and AAC audio for broad playback compatibility.</text>
  <rect x="205" y="310" width="990" height="178" rx="14" fill="#fff" stroke="#cbd5e1"/><text x="233" y="346" font-family="Arial" font-size="17" font-weight="700" fill="#334155">Input and output files</text>
  <text x="233" y="397" font-family="Arial" font-size="15" fill="#475569">MKV input</text><rect x="355" y="370" width="650" height="44" rx="8" fill="#f8fafc" stroke="#cbd5e1"/><text x="375" y="398" font-family="Arial" font-size="15" fill="#64748b">example-recording.mkv</text><rect x="1025" y="370" width="140" height="44" rx="8" fill="#e2e8f0"/><text x="1095" y="398" text-anchor="middle" font-family="Arial" font-size="15" font-weight="700" fill="#334155">Browse…</text>
  <text x="233" y="454" font-family="Arial" font-size="15" fill="#475569">MP4 output</text><rect x="355" y="427" width="650" height="44" rx="8" fill="#f8fafc" stroke="#cbd5e1"/><text x="375" y="455" font-family="Arial" font-size="15" fill="#64748b">example-recording.mp4</text><rect x="1025" y="427" width="140" height="44" rx="8" fill="#e2e8f0"/><text x="1095" y="455" text-anchor="middle" font-family="Arial" font-size="15" font-weight="700" fill="#334155">Browse…</text>
  <rect x="205" y="515" width="990" height="132" rx="14" fill="#fff" stroke="#cbd5e1"/><text x="233" y="553" font-family="Arial" font-size="17" font-weight="700" fill="#334155">Conversion progress</text><text x="233" y="594" font-family="Arial" font-size="15" fill="#475569">Encoding MP4… 68.0%</text><rect x="233" y="611" width="934" height="18" rx="9" fill="#e2e8f0"/><rect x="233" y="611" width="635" height="18" rx="9" fill="#2563eb"/>
  <text x="205" y="686" font-family="Arial" font-size="15" fill="#1e3a8a">Conversion started. Progress will update above.</text>
  <rect x="205" y="717" width="190" height="52" rx="10" fill="#2563eb"/><text x="300" y="750" text-anchor="middle" font-family="Arial" font-size="16" font-weight="700" fill="#fff">Convert to MP4</text><rect x="411" y="717" width="120" height="52" rx="10" fill="#fee2e2"/><text x="471" y="750" text-anchor="middle" font-family="Arial" font-size="16" font-weight="700" fill="#b91c1c">Cancel</text>
</svg>
